<?xml version="1.0" encoding="UTF-8"?>
<svg xmlns="http://www.w3.org/2000/svg" width="2200" height="1500" viewBox="0 0 2200 1500">
<defs>
  <marker id="arrow" markerWidth="14" markerHeight="14" refX="12" refY="7" orient="auto" markerUnits="strokeWidth">
    <path d="M 0 0 L 14 7 L 0 14 z" fill="#475569"/>
  </marker>
</defs>
<rect x="30" y="30" width="2140" height="1440" rx="26" fill="#f8fafc" stroke="#cbd5e1" stroke-width="2"/><text x="1100" y="88" text-anchor="middle" font-family="Inter, Segoe UI, Arial" font-size="44" font-weight="900" fill="#0f172a">Dama Local Tickerplant Data Plant</text><text x="1100" y="126" text-anchor="middle" font-family="Inter, Segoe UI, Arial" font-size="22" fill="#475569">All processing stays local until a validated complete sutta is sealed to GCS</text><rect x="70" y="170" width="420" height="390" rx="22" fill="#ecfeff" stroke="#67e8f9" stroke-width="2"/><text x="105" y="215" font-family="Inter, Segoe UI, Arial" font-size="24" font-weight="800" fill="#334155">Sources</text><rect x="545" y="170" width="360" height="390" rx="22" fill="#f0fdf4" stroke="#86efac" stroke-width="2"/><text x="580" y="215" font-family="Inter, Segoe UI, Arial" font-size="24" font-weight="800" fill="#334155">Feed Handlers</text><rect x="960" y="170" width="520" height="390" rx="22" fill="#fff7ed" stroke="#fdba74" stroke-width="2"/><text x="995" y="215" font-family="Inter, Segoe UI, Arial" font-size="24" font-weight="800" fill="#334155">Local Tickerplant Core</text><rect x="1535" y="170" width="570" height="390" rx="22" fill="#eef2ff" stroke="#a5b4fc" stroke-width="2"/><text x="1570" y="215" font-family="Inter, Segoe UI, Arial" font-size="24" font-weight="800" fill="#334155">Operations View</text><rect x="70" y="630" width="900" height="445" rx="22" fill="#ffffff" stroke="#cbd5e1" stroke-width="2"/><text x="105" y="675" font-family="Inter, Segoe UI, Arial" font-size="24" font-weight="800" fill="#334155">Async Sutta Subscribers</text><rect x="1025" y="630" width="1080" height="445" rx="22" fill="#fff1f2" stroke="#fda4af" stroke-width="2"/><text x="1060" y="675" font-family="Inter, Segoe UI, Arial" font-size="24" font-weight="800" fill="#334155">Buddha Book Image Pipeline</text><rect x="70" y="1140" width="700" height="245" rx="22" fill="#fefce8" stroke="#fde047" stroke-width="2"/><text x="105" y="1185" font-family="Inter, Segoe UI, Arial" font-size="24" font-weight="800" fill="#334155">Quality Gate</text><rect x="845" y="1140" width="1260" height="245" rx="22" fill="#f1f5f9" stroke="#94a3b8" stroke-width="2"/><text x="880" y="1185" font-family="Inter, Segoe UI, Arial" font-size="24" font-weight="800" fill="#334155">GCS HDB And Serving</text><g id="src1">
<rect x="110" y="250" width="335" height="120" rx="14" fill="#ffffff" stroke="#0891b2" stroke-width="3"/>
<text x="277.5" y="280" text-anchor="middle" font-family="Inter, Segoe UI, Arial" font-size="22" font-weight="700" fill="#0f172a">Sutta Sources</text>
<text x="277.5" y="310" text-anchor="middle" font-family="Inter, Segoe UI, Arial" font-size="16" fill="#475569">YouTube, playlists, audio</text>
<text x="277.5" y="331" text-anchor="middle" font-family="Inter, Segoe UI, Arial" font-size="16" fill="#475569">files, manual rows</text>
</g>
<g id="src2">
<rect x="110" y="395" width="335" height="120" rx="14" fill="#ffffff" stroke="#0891b2" stroke-width="3"/>
<text x="277.5" y="425" text-anchor="middle" font-family="Inter, Segoe UI, Arial" font-size="22" font-weight="700" fill="#0f172a">Buddha Books</text>
<text x="277.5" y="455" text-anchor="middle" font-family="Inter, Segoe UI, Arial" font-size="16" fill="#475569">PDFs, scans, page images</text>
</g>
<g id="fh1">
<rect x="585" y="250" width="280" height="120" rx="14" fill="#ffffff" stroke="#16a34a" stroke-width="3"/>
<text x="725" y="280" text-anchor="middle" font-family="Inter, Segoe UI, Arial" font-size="22" font-weight="700" fill="#0f172a">Sutta Feed Handler</text>
<text x="725" y="310" text-anchor="middle" font-family="Inter, Segoe UI, Arial" font-size="16" fill="#475569">check source, dedupe,</text>
<text x="725" y="331" text-anchor="middle" font-family="Inter, Segoe UI, Arial" font-size="16" fill="#475569">normalize</text>
</g>
<g id="fh2">
<rect x="585" y="395" width="280" height="120" rx="14" fill="#ffffff" stroke="#16a34a" stroke-width="3"/>
<text x="725" y="425" text-anchor="middle" font-family="Inter, Segoe UI, Arial" font-size="22" font-weight="700" fill="#0f172a">Image Feed Handler</text>
<text x="725" y="455" text-anchor="middle" font-family="Inter, Segoe UI, Arial" font-size="16" fill="#475569">ingest books and pages</text>
</g>
<g id="tp">
<rect x="1010" y="245" width="420" height="145" rx="14" fill="#fffaf0" stroke="#ea580c" stroke-width="3"/>
<text x="1220" y="275" text-anchor="middle" font-family="Inter, Segoe UI, Arial" font-size="22" font-weight="700" fill="#0f172a">Local Tickerplant /</text>
<text x="1220" y="301" text-anchor="middle" font-family="Inter, Segoe UI, Arial" font-size="22" font-weight="700" fill="#0f172a">Event Bus</text>
<text x="1220" y="331" text-anchor="middle" font-family="Inter, Segoe UI, Arial" font-size="16" fill="#475569">ordered event log and async</text>
<text x="1220" y="352" text-anchor="middle" font-family="Inter, Segoe UI, Arial" font-size="16" fill="#475569">publish</text>
</g>
<g id="rdb">
<rect x="1010" y="425" width="195" height="90" rx="14" fill="#ffffff" stroke="#ea580c" stroke-width="3"/>
<text x="1107.5" y="455" text-anchor="middle" font-family="Inter, Segoe UI, Arial" font-size="22" font-weight="700" fill="#0f172a">Local RDB</text>
<text x="1107.5" y="485" text-anchor="middle" font-family="Inter, Segoe UI, Arial" font-size="16" fill="#475569">jobs, status, artifacts,</text>
<text x="1107.5" y="506" text-anchor="middle" font-family="Inter, Segoe UI, Arial" font-size="16" fill="#475569">errors</text>
</g>
<g id="elog">
<rect x="1235" y="425" width="195" height="90" rx="14" fill="#ffffff" stroke="#ea580c" stroke-width="3"/>
<text x="1332.5" y="455" text-anchor="middle" font-family="Inter, Segoe UI, Arial" font-size="22" font-weight="700" fill="#0f172a">Local Event Log</text>
<text x="1332.5" y="485" text-anchor="middle" font-family="Inter, Segoe UI, Arial" font-size="16" fill="#475569">append-only pipeline facts</text>
</g>
<g id="dash">
<rect x="1580" y="270" width="480" height="155" rx="14" fill="#ffffff" stroke="#4f46e5" stroke-width="3"/>
<text x="1820" y="300" text-anchor="middle" font-family="Inter, Segoe UI, Arial" font-size="22" font-weight="700" fill="#0f172a">Pipeline Dashboard</text>
<text x="1820" y="330" text-anchor="middle" font-family="Inter, Segoe UI, Arial" font-size="16" fill="#475569">nikaya, book, sutta, stage</text>
<text x="1820" y="351" text-anchor="middle" font-family="Inter, Segoe UI, Arial" font-size="16" fill="#475569">progress, failures, review,</text>
<text x="1820" y="372" text-anchor="middle" font-family="Inter, Segoe UI, Arial" font-size="16" fill="#475569">sealed status</text>
</g>
<g id="download">
<rect x="110" y="715" width="230" height="115" rx="14" fill="#ffffff" stroke="#64748b" stroke-width="3"/>
<text x="225" y="745" text-anchor="middle" font-family="Inter, Segoe UI, Arial" font-size="22" font-weight="700" fill="#0f172a">Download</text>
<text x="225" y="775" text-anchor="middle" font-family="Inter, Segoe UI, Arial" font-size="16" fill="#475569">audio/video</text>
</g>
<g id="transcript">
<rect x="395" y="715" width="230" height="115" rx="14" fill="#ffffff" stroke="#64748b" stroke-width="3"/>
<text x="510" y="745" text-anchor="middle" font-family="Inter, Segoe UI, Arial" font-size="22" font-weight="700" fill="#0f172a">Transcription</text>
<text x="510" y="775" text-anchor="middle" font-family="Inter, Segoe UI, Arial" font-size="16" fill="#475569">transcript artifact</text>
</g>
<g id="match">
<rect x="680" y="715" width="230" height="115" rx="14" fill="#ffffff" stroke="#64748b" stroke-width="3"/>
<text x="795" y="745" text-anchor="middle" font-family="Inter, Segoe UI, Arial" font-size="22" font-weight="700" fill="#0f172a">Sutta Match</text>
<text x="795" y="775" text-anchor="middle" font-family="Inter, Segoe UI, Arial" font-size="16" fill="#475569">nikaya/book/sutta</text>
</g>
<g id="segment">
<rect x="110" y="890" width="230" height="115" rx="14" fill="#ffffff" stroke="#64748b" stroke-width="3"/>
<text x="225" y="920" text-anchor="middle" font-family="Inter, Segoe UI, Arial" font-size="22" font-weight="700" fill="#0f172a">Segmentation</text>
<text x="225" y="950" text-anchor="middle" font-family="Inter, Segoe UI, Arial" font-size="16" fill="#475569">commentary/text segments</text>
</g>
<g id="timestamps">
<rect x="395" y="890" width="230" height="115" rx="14" fill="#ffffff" stroke="#64748b" stroke-width="3"/>
<text x="510" y="920" text-anchor="middle" font-family="Inter, Segoe UI, Arial" font-size="22" font-weight="700" fill="#0f172a">Audio Timestamps</text>
<text x="510" y="950" text-anchor="middle" font-family="Inter, Segoe UI, Arial" font-size="16" fill="#475569">segment start/end times</text>
</g>
<g id="generation">
<rect x="680" y="890" width="230" height="115" rx="14" fill="#ffffff" stroke="#64748b" stroke-width="3"/>
<text x="795" y="920" text-anchor="middle" font-family="Inter, Segoe UI, Arial" font-size="22" font-weight="700" fill="#0f172a">Generation</text>
<text x="795" y="950" text-anchor="middle" font-family="Inter, Segoe UI, Arial" font-size="16" fill="#475569">MCQ, vocab, technique</text>
</g>
<g id="extract">
<rect x="1065" y="715" width="230" height="115" rx="14" fill="#ffffff" stroke="#e11d48" stroke-width="3"/>
<text x="1180" y="745" text-anchor="middle" font-family="Inter, Segoe UI, Arial" font-size="22" font-weight="700" fill="#0f172a">Panel Extraction</text>
<text x="1180" y="775" text-anchor="middle" font-family="Inter, Segoe UI, Arial" font-size="16" fill="#475569">extract, tag, dedupe</text>
</g>
<g id="cand">
<rect x="1355" y="715" width="255" height="115" rx="14" fill="#ffffff" stroke="#e11d48" stroke-width="3"/>
<text x="1482.5" y="745" text-anchor="middle" font-family="Inter, Segoe UI, Arial" font-size="22" font-weight="700" fill="#0f172a">Image Candidate Store</text>
<text x="1482.5" y="775" text-anchor="middle" font-family="Inter, Segoe UI, Arial" font-size="16" fill="#475569">metadata + thumbnails</text>
</g>
<g id="selector">
<rect x="1670" y="715" width="255" height="115" rx="14" fill="#ffffff" stroke="#e11d48" stroke-width="3"/>
<text x="1797.5" y="745" text-anchor="middle" font-family="Inter, Segoe UI, Arial" font-size="22" font-weight="700" fill="#0f172a">Image Selector UI</text>
<text x="1797.5" y="775" text-anchor="middle" font-family="Inter, Segoe UI, Arial" font-size="16" fill="#475569">human chooses fitting images</text>
</g>
<g id="approved">
<rect x="1355" y="890" width="255" height="115" rx="14" fill="#ffffff" stroke="#e11d48" stroke-width="3"/>
<text x="1482.5" y="920" text-anchor="middle" font-family="Inter, Segoe UI, Arial" font-size="22" font-weight="700" fill="#0f172a">Approved Images</text>
<text x="1482.5" y="950" text-anchor="middle" font-family="Inter, Segoe UI, Arial" font-size="16" fill="#475569">local until seal</text>
</g>
<g id="imgmatch">
<rect x="1670" y="890" width="255" height="115" rx="14" fill="#ffffff" stroke="#e11d48" stroke-width="3"/>
<text x="1797.5" y="920" text-anchor="middle" font-family="Inter, Segoe UI, Arial" font-size="22" font-weight="700" fill="#0f172a">Image Match</text>
<text x="1797.5" y="950" text-anchor="middle" font-family="Inter, Segoe UI, Arial" font-size="16" fill="#475569">attach images to sutta</text>
</g>
<g id="validation">
<rect x="110" y="1225" width="260" height="105" rx="14" fill="#ffffff" stroke="#ca8a04" stroke-width="3"/>
<text x="240" y="1255" text-anchor="middle" font-family="Inter, Segoe UI, Arial" font-size="22" font-weight="700" fill="#0f172a">Validation Subscriber</text>
<text x="240" y="1285" text-anchor="middle" font-family="Inter, Segoe UI, Arial" font-size="16" fill="#475569">schema + quality gates</text>
</g>
<g id="seal">
<rect x="455" y="1225" width="260" height="105" rx="14" fill="#ffffff" stroke="#ca8a04" stroke-width="3"/>
<text x="585" y="1255" text-anchor="middle" font-family="Inter, Segoe UI, Arial" font-size="22" font-weight="700" fill="#0f172a">Seal Subscriber</text>
<text x="585" y="1285" text-anchor="middle" font-family="Inter, Segoe UI, Arial" font-size="16" fill="#475569">upload clean complete sutta</text>
</g>
<g id="gcs">
<rect x="890" y="1225" width="285" height="105" rx="14" fill="#ffffff" stroke="#334155" stroke-width="3"/>
<text x="1032.5" y="1255" text-anchor="middle" font-family="Inter, Segoe UI, Arial" font-size="22" font-weight="700" fill="#0f172a">GCS HDB</text>
<text x="1032.5" y="1285" text-anchor="middle" font-family="Inter, Segoe UI, Arial" font-size="16" fill="#475569">sealed artifacts by</text>
<text x="1032.5" y="1306" text-anchor="middle" font-family="Inter, Segoe UI, Arial" font-size="16" fill="#475569">nikaya/book/sutta</text>
</g>
<g id="replay">
<rect x="1245" y="1225" width="260" height="105" rx="14" fill="#ffffff" stroke="#334155" stroke-width="3"/>
<text x="1375" y="1255" text-anchor="middle" font-family="Inter, Segoe UI, Arial" font-size="22" font-weight="700" fill="#0f172a">Replay / Rebuild</text>
<text x="1375" y="1285" text-anchor="middle" font-family="Inter, Segoe UI, Arial" font-size="16" fill="#475569">recreate DB and indexes</text>
</g>
<g id="serve">
<rect x="1575" y="1225" width="220" height="105" rx="14" fill="#ffffff" stroke="#334155" stroke-width="3"/>
<text x="1685" y="1255" text-anchor="middle" font-family="Inter, Segoe UI, Arial" font-size="22" font-weight="700" fill="#0f172a">Serving DB</text>
<text x="1685" y="1285" text-anchor="middle" font-family="Inter, Segoe UI, Arial" font-size="16" fill="#475569">queryable projection</text>
</g>
<g id="gateway">
<rect x="1845" y="1225" width="220" height="105" rx="14" fill="#ffffff" stroke="#334155" stroke-width="3"/>
<text x="1955" y="1255" text-anchor="middle" font-family="Inter, Segoe UI, Arial" font-size="22" font-weight="700" fill="#0f172a">Dama App / Gateway</text>
<text x="1955" y="1285" text-anchor="middle" font-family="Inter, Segoe UI, Arial" font-size="16" fill="#475569">read and control layer</text>
</g>
<path d="M 445 310 L 585 310" fill="none" stroke="#475569" stroke-width="3"  marker-end="url(#arrow)"/><path d="M 445 455 L 585 455" fill="none" stroke="#475569" stroke-width="3"  marker-end="url(#arrow)"/><path d="M 865 310 L 1010 315" fill="none" stroke="#475569" stroke-width="3"  marker-end="url(#arrow)"/><path d="M 865 455 L 1010 335" fill="none" stroke="#475569" stroke-width="3"  marker-end="url(#arrow)"/><path d="M 1220 390 L 1120 425" fill="none" stroke="#475569" stroke-width="3"  marker-end="url(#arrow)"/><path d="M 1220 390 L 1332 425" fill="none" stroke="#475569" stroke-width="3"  marker-end="url(#arrow)"/><path d="M 1430 318 L 1580 348" fill="none" stroke="#475569" stroke-width="3"  marker-end="url(#arrow)"/><path d="M 1205 470 L 1580 360" fill="none" stroke="#64748b" stroke-width="3" stroke-dasharray="10 8" marker-end="url(#arrow)"/><path d="M 1430 470 L 1580 380" fill="none" stroke="#64748b" stroke-width="3" stroke-dasharray="10 8" marker-end="url(#arrow)"/><path d="M 1220 560 L 1220 600 L 225 600 L 225 715" fill="none" stroke="#475569" stroke-width="3"  marker-end="url(#arrow)"/><path d="M 225 830 L 225 860 L 1220 860 L 1220 560" fill="none" stroke="#94a3b8" stroke-width="3" stroke-dasharray="10 8" marker-end="url(#arrow)"/><path d="M 1220 560 L 1220 600 L 510 600 L 510 715" fill="none" stroke="#475569" stroke-width="3"  marker-end="url(#arrow)"/><path d="M 510 830 L 510 860 L 1220 860 L 1220 560" fill="none" stroke="#94a3b8" stroke-width="3" stroke-dasharray="10 8" marker-end="url(#arrow)"/><path d="M 1220 560 L 1220 600 L 795 600 L 795 715" fill="none" stroke="#475569" stroke-width="3"  marker-end="url(#arrow)"/><path d="M 795 830 L 795 860 L 1220 860 L 1220 560" fill="none" stroke="#94a3b8" stroke-width="3" stroke-dasharray="10 8" marker-end="url(#arrow)"/><path d="M 1220 560 L 1220 600 L 225 600 L 225 890" fill="none" stroke="#475569" stroke-width="3"  marker-end="url(#arrow)"/><path d="M 225 1005 L 225 1035 L 1220 1035 L 1220 560" fill="none" stroke="#94a3b8" stroke-width="3" stroke-dasharray="10 8" marker-end="url(#arrow)"/><path d="M 1220 560 L 1220 600 L 510 600 L 510 890" fill="none" stroke="#475569" stroke-width="3"  marker-end="url(#arrow)"/><path d="M 510 1005 L 510 1035 L 1220 1035 L 1220 560" fill="none" stroke="#94a3b8" stroke-width="3" stroke-dasharray="10 8" marker-end="url(#arrow)"/><path d="M 1220 560 L 1220 600 L 795 600 L 795 890" fill="none" stroke="#475569" stroke-width="3"  marker-end="url(#arrow)"/><path d="M 795 1005 L 795 1035 L 1220 1035 L 1220 560" fill="none" stroke="#94a3b8" stroke-width="3" stroke-dasharray="10 8" marker-end="url(#arrow)"/><path d="M 1220 560 L 1220 600 L 1180 600 L 1180 715" fill="none" stroke="#475569" stroke-width="3"  marker-end="url(#arrow)"/><path d="M 1295 772 L 1355 772" fill="none" stroke="#475569" stroke-width="3"  marker-end="url(#arrow)"/><path d="M 1610 772 L 1670 772" fill="none" stroke="#475569" stroke-width="3"  marker-end="url(#arrow)"/><path d="M 1798 830 L 1798 865 L 1483 865 L 1483 890" fill="none" stroke="#475569" stroke-width="3"  marker-end="url(#arrow)"/><path d="M 1610 948 L 1670 948" fill="none" stroke="#475569" stroke-width="3"  marker-end="url(#arrow)"/><path d="M 1798 1005 L 1798 1040 L 1220 1040 L 1220 560" fill="none" stroke="#94a3b8" stroke-width="3" stroke-dasharray="10 8" marker-end="url(#arrow)"/><path d="M 1220 560 L 1220 610 L 1798 610 L 1798 890" fill="none" stroke="#475569" stroke-width="3"  marker-end="url(#arrow)"/><path d="M 1220 560 L 1220 1110 L 240 1110 L 240 1225" fill="none" stroke="#475569" stroke-width="3"  marker-end="url(#arrow)"/><path d="M 240 1330 L 240 1360 L 1220 1360 L 1220 560" fill="none" stroke="#94a3b8" stroke-width="3" stroke-dasharray="10 8" marker-end="url(#arrow)"/><path d="M 370 1278 L 455 1278" fill="none" stroke="#475569" stroke-width="3"  marker-end="url(#arrow)"/><path d="M 715 1278 L 890 1278" fill="none" stroke="#475569" stroke-width="3"  marker-end="url(#arrow)"/><path d="M 1175 1278 L 1245 1278" fill="none" stroke="#475569" stroke-width="3"  marker-end="url(#arrow)"/><path d="M 1505 1278 L 1575 1278" fill="none" stroke="#475569" stroke-width="3"  marker-end="url(#arrow)"/><path d="M 1795 1278 L 1845 1278" fill="none" stroke="#475569" stroke-width="3"  marker-end="url(#arrow)"/><path d="M 1483 830 L 1580 425" fill="none" stroke="#64748b" stroke-width="3" stroke-dasharray="10 8" marker-end="url(#arrow)"/><path d="M 1798 830 L 1810 425" fill="none" stroke="#64748b" stroke-width="3" stroke-dasharray="10 8" marker-end="url(#arrow)"/><path d="M 1032 1225 L 1032 1115 L 1810 1115 L 1810 425" fill="none" stroke="#64748b" stroke-width="3" stroke-dasharray="10 8" marker-end="url(#arrow)"/><rect x="95" y="1405" width="22" height="22" fill="#fffaf0" stroke="#ea580c" stroke-width="2"/><text x="130" y="1423" font-family="Inter, Segoe UI, Arial" font-size="18" fill="#334155">central event spine</text><path d="M 420 1416 L 500 1416" stroke="#94a3b8" stroke-width="3" stroke-dasharray="10 8" marker-end="url(#arrow)"/><text x="520" y="1423" font-family="Inter, Segoe UI, Arial" font-size="18" fill="#334155">worker publishes result back to bus</text><text x="2040" y="1423" text-anchor="end" font-family="Inter, Segoe UI, Arial" font-size="18" fill="#64748b">Editable SVG + PNG export</text>
</svg>